<svg xmlns="http://www.w3.org/2000/svg" xmlns:xlink="http://www.w3.org/1999/xlink" id="Layer_1" x="0" y="0" version="1.1" viewBox="0 0 24 24" style="enable-background:new 0 0 24 24" xml:space="preserve"><title>design-tool-pencil-ruler</title><g><path d="M5.25,24c-2.068,0-3.75-1.682-3.75-3.75V7.458c0-0.289,0.034-0.581,0.103-0.868c0.003-0.015,0.011-0.044,0.021-0.073 c0.063-0.25,0.157-0.505,0.273-0.737l2.011-4.024c0.256-0.512,0.771-0.829,1.344-0.829c0.23,0,0.462,0.055,0.669,0.158 c0.289,0.144,0.527,0.383,0.672,0.672l2.012,4.024C8.718,6.01,8.811,6.26,8.879,6.525C8.888,6.552,8.895,6.577,8.9,6.604 C8.966,6.877,9,7.169,9,7.459V20.25C9,22.318,7.318,24,5.25,24z M3,20.25c0,1.241,1.009,2.25,2.25,2.25s2.25-1.009,2.25-2.25H3z M7.5,18.75V7.5H3v11.25H7.5z M7.036,6c0,0-1.786-3.573-1.787-3.573L3.464,6H7.036z"/><path d="M14.25,24C13.009,24,12,22.991,12,21.75V2.25C12,1.009,13.009,0,14.25,0h6c1.241,0,2.25,1.009,2.25,2.25v19.5 c0,1.241-1.009,2.25-2.25,2.25H14.25z M13.5,21.75c0,0.414,0.336,0.75,0.75,0.75h6c0.414,0,0.75-0.336,0.75-0.75V2.25 c0-0.414-0.336-0.75-0.75-0.75h-6c-0.414,0-0.75,0.336-0.75,0.75V4.5h2.25c0.414,0,0.75,0.336,0.75,0.75S16.164,6,15.75,6H13.5v3 h2.25c0.414,0,0.75,0.336,0.75,0.75s-0.336,0.75-0.75,0.75H13.5v3h2.25c0.414,0,0.75,0.336,0.75,0.75S16.164,15,15.75,15H13.5v3 h2.25c0.414,0,0.75,0.336,0.75,0.75s-0.336,0.75-0.75,0.75H13.5V21.75z"/></g></svg>