<svg xmlns="http://www.w3.org/2000/svg" xmlns:xlink="http://www.w3.org/1999/xlink" id="Layer_1" x="0" y="0" version="1.1" viewBox="0 0 24 24" xml:space="preserve" style="enable-background:new 0 0 24 24"><title>design-tool-selection-wand</title><g><path d="M0.751,24c-0.2,0-0.389-0.078-0.53-0.22c-0.292-0.292-0.292-0.768,0-1.061l15-15c0.142-0.142,0.33-0.22,0.53-0.22 s0.389,0.078,0.53,0.22c0.142,0.141,0.22,0.33,0.22,0.53s-0.078,0.389-0.22,0.53l-15,15C1.139,23.922,0.951,24,0.751,24z"/><path d="M8.251,9c-0.414,0-0.75-0.336-0.75-0.75S7.837,7.5,8.251,7.5h2.25c0.414,0,0.75,0.336,0.75,0.75S10.914,9,10.501,9H8.251z"/><path d="M21.001,9c-0.414,0-0.75-0.336-0.75-0.75s0.336-0.75,0.75-0.75h2.25c0.414,0,0.75,0.336,0.75,0.75S23.664,9,23.251,9 H21.001z"/><path d="M19.409,5.341c-0.2,0-0.389-0.078-0.53-0.22c-0.142-0.142-0.22-0.33-0.22-0.53c0-0.2,0.078-0.389,0.22-0.53L20.47,2.47 c0.142-0.142,0.33-0.22,0.53-0.22s0.389,0.078,0.53,0.22c0.142,0.142,0.22,0.33,0.22,0.53c0,0.2-0.078,0.389-0.22,0.53L19.94,5.121 C19.798,5.263,19.61,5.341,19.409,5.341z"/><path d="M15.751,3.75c-0.414,0-0.75-0.336-0.75-0.75V0.75c0-0.414,0.336-0.75,0.75-0.75s0.75,0.336,0.75,0.75V3 C16.501,3.414,16.164,3.75,15.751,3.75z"/><path d="M15.751,16.5c-0.414,0-0.75-0.336-0.75-0.75V13.5c0-0.414,0.336-0.75,0.75-0.75s0.75,0.336,0.75,0.75v2.25 C16.501,16.164,16.164,16.5,15.751,16.5z"/><path d="M12.091,5.341c-0.2,0-0.389-0.078-0.53-0.22L9.97,3.53C9.829,3.389,9.751,3.2,9.751,3s0.078-0.389,0.22-0.53 c0.141-0.142,0.33-0.22,0.53-0.22s0.389,0.078,0.53,0.22l1.591,1.591c0.292,0.292,0.292,0.768,0,1.06 C12.48,5.263,12.292,5.341,12.091,5.341z"/><path d="M21.001,14.25c-0.2,0-0.389-0.078-0.53-0.22l-1.591-1.591c-0.142-0.142-0.22-0.33-0.22-0.53c0-0.2,0.078-0.389,0.22-0.53 c0.142-0.142,0.33-0.22,0.53-0.22s0.389,0.078,0.53,0.22l1.591,1.591c0.142,0.142,0.22,0.33,0.22,0.53s-0.078,0.389-0.22,0.53 S21.201,14.25,21.001,14.25z"/></g></svg>