<svg viewBox="0 0 17 16" fill="none" xmlns="http://www.w3.org/2000/svg">
<path d="M16 14.4987C16 15.0509 15.5523 15.4987 15 15.4987H12C11.4477 15.4987 11 15.0509 11 14.4987V11.4987C11 10.9464 11.4477 10.4987 12 10.4987H15C15.5523 10.4987 16 10.9464 16 11.4987V14.4987Z" stroke="#1B1B1B" stroke-linecap="round" stroke-linejoin="round"/>
<path d="M5.99999 9.49866C5.99999 10.0509 5.55227 10.4987 4.99999 10.4987H2C1.44772 10.4987 1 10.0509 1 9.49866L1 6.49866C1 5.94638 1.44772 5.49866 2 5.49866H4.99999C5.55227 5.49866 5.99999 5.94638 5.99999 6.49866V9.49866Z" stroke="#1B1B1B" stroke-linecap="round" stroke-linejoin="round"/>
<path d="M16 4.49866C16 5.05094 15.5523 5.49866 15 5.49866H12C11.4477 5.49866 11 5.05094 11 4.49866V1.49866C11 0.946384 11.4477 0.498665 12 0.498665H15C15.5523 0.498665 16 0.946384 16 1.49866V4.49866Z" stroke="#1B1B1B" stroke-linecap="round" stroke-linejoin="round"/>
<path d="M11 12.9987H9.99999V12.9987C9.4477 12.9987 8.99999 12.5509 8.99999 11.9987V3.99867V3.99867C8.99999 3.44639 9.4477 2.99867 9.99999 2.99867H11" stroke="#1B1B1B" stroke-linecap="round" stroke-linejoin="round"/>
<path d="M6.00133 7.99866L9.00132 7.99866" stroke="#1B1B1B" stroke-linecap="round" stroke-linejoin="round"/>
</svg>
