<?xml version="1.0" encoding="utf-8"?>
<!-- Generator: Adobe Illustrator 22.1.0, SVG Export Plug-In . SVG Version: 6.00 Build 0)  -->
<svg version="1.1" id="Layer_1" xmlns="http://www.w3.org/2000/svg" xmlns:xlink="http://www.w3.org/1999/xlink" x="0px" y="0px"
	 viewBox="0 0 24 24" style="enable-background:new 0 0 24 24;" xml:space="preserve">
<title>e-learning-monitor</title>
<g>
	<path d="M6,24.001c-0.414,0-0.75-0.336-0.75-0.75s0.336-0.75,0.75-0.75h1.615l0.5-3H2.25c-1.241,0-2.25-1.009-2.25-2.25v-15
		c0-1.241,1.009-2.25,2.25-2.25h19.5c1.241,0,2.25,1.009,2.25,2.25v15c0,1.241-1.009,2.25-2.25,2.25h-5.865l0.5,3H18
		c0.414,0,0.75,0.336,0.75,0.75s-0.336,0.75-0.75,0.75H6z M14.865,22.501l-0.5-3H9.635l-0.5,3H14.865z M2.25,1.501
		c-0.414,0-0.75,0.336-0.75,0.75v15c0,0.414,0.336,0.75,0.75,0.75h19.5c0.414,0,0.75-0.336,0.75-0.75v-15
		c0-0.414-0.336-0.75-0.75-0.75H2.25z"/>
	<path d="M12.006,15.001c-1.585-0.032-3.098-0.634-4.262-1.696C7.589,13.163,7.5,12.961,7.5,12.751V9.322L4.945,8.186
		C4.675,8.066,4.5,7.797,4.5,7.501s0.175-0.565,0.445-0.685l6.75-3C11.792,3.773,11.894,3.751,12,3.751s0.208,0.022,0.305,0.065
		l6.743,2.997c0.011,0.005,0.023,0.011,0.036,0.018c0.048,0.024,0.092,0.053,0.134,0.086c0.005,0.004,0.029,0.024,0.034,0.028
		c0.05,0.045,0.091,0.093,0.124,0.142c0.006,0.009,0.012,0.02,0.018,0.031c0.026,0.043,0.047,0.09,0.065,0.143
		c0.003,0.01,0.013,0.043,0.016,0.053C19.491,7.375,19.5,7.438,19.5,7.501v2.25c0,0.414-0.336,0.75-0.75,0.75S18,10.165,18,9.751
		V8.655l-1.5,0.667v3.429c0,0.209-0.088,0.411-0.242,0.552c-1.158,1.066-2.663,1.669-4.237,1.698c-0.002,0-0.005,0-0.007,0
		C12.011,15.001,12.009,15.001,12.006,15.001z M9,12.406c0.856,0.685,1.922,1.073,3.022,1.095c1.073-0.02,2.128-0.407,2.978-1.093
		V9.988l-2.695,1.198c-0.096,0.043-0.199,0.065-0.305,0.065s-0.208-0.022-0.305-0.065L9,9.988V12.406z M12,9.68l4.903-2.179
		L12,5.322L7.097,7.501L12,9.68z"/>
</g>
</svg>
