<svg xmlns="http://www.w3.org/2000/svg" xmlns:xlink="http://www.w3.org/1999/xlink" id="Layer_1" x="0" y="0" version="1.1" viewBox="0 0 24 24" xml:space="preserve" style="enable-background:new 0 0 24 24"><title>lab-flask-experiment</title><g><path d="M4.002,24c-0.726-0.001-1.431-0.21-2.039-0.606c-1.734-1.127-2.227-3.454-1.101-5.188L7.478,8.028V1.5h-0.75 c-0.414,0-0.75-0.336-0.75-0.75S6.315,0,6.728,0h10.5c0.414,0,0.75,0.336,0.75,0.75s-0.336,0.75-0.75,0.75h-0.75v6.528 l6.616,10.179c0.396,0.61,0.606,1.316,0.606,2.043c0,1.001-0.39,1.943-1.098,2.652C21.893,23.61,20.952,24,19.95,24H4.002z M2.12,19.024c-0.676,1.04-0.38,2.437,0.66,3.113c0.365,0.237,0.788,0.363,1.223,0.364H19.95c0.601,0,1.166-0.234,1.591-0.659 c0.425-0.425,0.659-0.99,0.659-1.591c0-0.436-0.126-0.86-0.364-1.226l-3.59-5.524H5.71L2.12,19.024z M17.271,12l-2.172-3.341 c-0.079-0.122-0.121-0.263-0.121-0.409V7.5h-2.25c-0.414,0-0.75-0.336-0.75-0.75S12.315,6,12.728,6h2.25V4.5h-2.25 c-0.414,0-0.75-0.336-0.75-0.75S12.315,3,12.728,3h2.25V1.5h-6v6.75c0,0.146-0.042,0.287-0.121,0.409L6.685,12H17.271z"/><path d="M15.728,19.5c-0.414,0-0.75-0.336-0.75-0.75V18h-0.75c-0.414,0-0.75-0.336-0.75-0.75s0.336-0.75,0.75-0.75h0.75v-0.75 c0-0.414,0.336-0.75,0.75-0.75s0.75,0.336,0.75,0.75v0.75h0.75c0.414,0,0.75,0.336,0.75,0.75S17.642,18,17.228,18h-0.75v0.75 C16.478,19.164,16.142,19.5,15.728,19.5z"/><path d="M6.727,20.625c-0.044,0-0.089-0.004-0.133-0.012c-0.511-0.062-0.92-0.47-0.98-0.982c-0.008-0.043-0.012-0.087-0.012-0.131 s0.004-0.088,0.011-0.131c0.06-0.513,0.47-0.922,0.983-0.983c0.042-0.007,0.086-0.011,0.13-0.011c0.018,0,0.053,0.003,0.071,0.005 c0.02,0.001,0.039,0.003,0.057,0.006c0.514,0.059,0.924,0.469,0.985,0.983c0.008,0.043,0.012,0.087,0.012,0.131 s-0.004,0.088-0.012,0.131c-0.06,0.512-0.468,0.921-0.98,0.982C6.817,20.621,6.773,20.625,6.727,20.625L6.727,20.625z"/><path d="M9.727,17.625c-0.044,0-0.089-0.004-0.133-0.012c-0.511-0.062-0.92-0.47-0.98-0.982c-0.008-0.043-0.012-0.087-0.012-0.131 s0.004-0.088,0.011-0.131c0.06-0.513,0.47-0.922,0.983-0.983c0.042-0.007,0.086-0.011,0.13-0.011s0.088,0.004,0.13,0.011 c0.568,0.066,0.995,0.542,0.995,1.114c0,0.046-0.005,0.093-0.013,0.139c-0.064,0.507-0.471,0.913-0.979,0.974 C9.817,17.621,9.773,17.625,9.727,17.625L9.727,17.625z"/></g></svg>