<?xml version="1.0" encoding="utf-8"?>
<!-- Generator: Adobe Illustrator 22.1.0, SVG Export Plug-In . SVG Version: 6.00 Build 0)  -->
<svg version="1.1" id="Layer_1" xmlns="http://www.w3.org/2000/svg" xmlns:xlink="http://www.w3.org/1999/xlink" x="0px" y="0px"
	 viewBox="0 0 24 24" style="enable-background:new 0 0 24 24;" xml:space="preserve">
<title>legal-scale-1</title>
<g>
	<path d="M7.5,24c-0.414,0-0.75-0.336-0.75-0.75S7.086,22.5,7.5,22.5h3.75V5.872c-0.642-0.226-1.146-0.73-1.372-1.372H6.464
		l3.207,6.415c0.185,0.37,0.034,0.821-0.335,1.006C9.231,11.973,9.116,12,9,12c-0.286,0-0.543-0.159-0.671-0.414L5.25,5.427
		l-3.079,6.158C2.043,11.841,1.786,12,1.5,12c-0.115,0-0.231-0.027-0.335-0.079c-0.37-0.185-0.521-0.636-0.336-1.006l3.75-7.5
		c0.005-0.01,0.027-0.047,0.033-0.057c0.012-0.02,0.023-0.036,0.035-0.052C4.651,3.3,4.667,3.279,4.672,3.273
		c0.006-0.008,0.016-0.018,0.025-0.028c0.018-0.019,0.032-0.033,0.047-0.046c0.004-0.004,0.024-0.022,0.028-0.025l0.033-0.025
		c0.021-0.015,0.037-0.026,0.054-0.036c0.003-0.002,0.041-0.025,0.051-0.03C4.921,3.076,4.935,3.07,4.948,3.064
		C4.96,3.059,4.975,3.053,4.992,3.047C4.998,3.045,5.024,3.036,5.03,3.034c0.016-0.005,0.031-0.009,0.045-0.013
		C5.095,3.017,5.112,3.014,5.13,3.011c0.006-0.001,0.034-0.005,0.04-0.006C5.186,3.004,5.238,3,5.25,3h4.629
		C10.192,2.115,11.04,1.5,12,1.5c0.96,0,1.808,0.615,2.121,1.5h4.629c0.012,0,0.061,0.004,0.071,0.005
		c0.009,0.001,0.043,0.005,0.052,0.007c0.016,0.003,0.032,0.006,0.048,0.009c0.007,0.002,0.03,0.008,0.037,0.01
		c0.024,0.007,0.039,0.012,0.054,0.018c0.014,0.005,0.064,0.026,0.074,0.031c0.01,0.005,0.047,0.027,0.053,0.031
		c0.025,0.016,0.04,0.026,0.055,0.037c0.003,0.002,0.022,0.016,0.025,0.019c0.02,0.016,0.03,0.025,0.04,0.035l0.036,0.035
		c0.008,0.008,0.031,0.034,0.038,0.043c0.004,0.005,0.014,0.017,0.023,0.03c0.011,0.015,0.023,0.032,0.034,0.05
		c0.004,0.007,0.023,0.038,0.026,0.044l3.756,7.512c0.185,0.37,0.034,0.821-0.335,1.006C22.731,11.973,22.615,12,22.5,12
		c-0.286,0-0.543-0.159-0.671-0.415L18.75,5.427l-3.079,6.158C15.543,11.841,15.286,12,15,12c-0.115,0-0.231-0.027-0.334-0.079
		c-0.37-0.185-0.521-0.636-0.336-1.006L17.536,4.5h-3.415c-0.226,0.642-0.73,1.146-1.372,1.372V22.5h3.75
		c0.414,0,0.75,0.336,0.75,0.75S16.914,24,16.5,24H7.5z M12,3c-0.414,0-0.75,0.336-0.75,0.75S11.586,4.5,12,4.5
		s0.75-0.336,0.75-0.75S12.414,3,12,3z"/>
	<path d="M5.25,18.75c-2.481,0-4.5-2.019-4.5-4.5c0-0.414,0.336-0.75,0.75-0.75H9c0.414,0,0.75,0.336,0.75,0.75
		C9.75,16.731,7.731,18.75,5.25,18.75z M2.344,15c0.335,1.308,1.518,2.25,2.906,2.25S7.821,16.308,8.156,15H2.344z"/>
	<path d="M18.75,18.75c-2.481,0-4.5-2.019-4.5-4.5c0-0.414,0.336-0.75,0.75-0.75h7.5c0.414,0,0.75,0.336,0.75,0.75
		C23.25,16.731,21.231,18.75,18.75,18.75z M15.844,15c0.335,1.308,1.518,2.25,2.906,2.25s2.571-0.942,2.906-2.25H15.844z"/>
</g>
</svg>
