<svg xmlns="http://www.w3.org/2000/svg" xmlns:xlink="http://www.w3.org/1999/xlink" id="Layer_1" x="0" y="0" version="1.1" viewBox="0 0 24 24" xml:space="preserve" style="enable-background:new 0 0 24 24"><title>navigation-menu</title><g><path d="M2.25,18.753c-0.414,0-0.75-0.336-0.75-0.75s0.336-0.75,0.75-0.75h19.5c0.414,0,0.75,0.336,0.75,0.75 s-0.336,0.75-0.75,0.75H2.25z"/><path d="M2.25,12.753c-0.414,0-0.75-0.336-0.75-0.75s0.336-0.75,0.75-0.75h19.5c0.414,0,0.75,0.336,0.75,0.75 s-0.336,0.75-0.75,0.75H2.25z"/><path d="M2.25,6.753c-0.414,0-0.75-0.336-0.75-0.75s0.336-0.75,0.75-0.75h19.5c0.414,0,0.75,0.336,0.75,0.75s-0.336,0.75-0.75,0.75 H2.25z"/></g></svg>