<svg xmlns="http://www.w3.org/2000/svg" xmlns:xlink="http://www.w3.org/1999/xlink" id="Layer_1" x="0" y="0" version="1.1" viewBox="0 0 24 24" xml:space="preserve" style="enable-background:new 0 0 24 24"><title>plane-take-off</title><g><path d="M12.837,21.227c-0.495-0.007-0.953-0.204-1.295-0.555c-0.342-0.351-0.526-0.815-0.52-1.305V15l-2.536,1.261 c-0.406,0.201-0.858,0.307-1.308,0.307c-0.701,0-1.381-0.252-1.914-0.709l-3.993-3.398c-0.19-0.163-0.342-0.358-0.453-0.579 C0.362,10.97,0.734,9.856,1.646,9.4l2.133-0.94c0.096-0.042,0.198-0.064,0.302-0.064c0.162,0,0.323,0.054,0.452,0.151l1.586,1.197 l2.975-1.503L7.475,7.011c-0.224-0.17-0.408-0.393-0.534-0.644C6.72,5.926,6.684,5.425,6.84,4.955 c0.156-0.469,0.485-0.85,0.926-1.071l1.853-0.915c0.252-0.126,0.537-0.192,0.823-0.192c0.286,0,0.572,0.067,0.826,0.194 l4.122,2.088l2.942-1.487c0.492-0.244,1.013-0.367,1.555-0.367c1.339,0,2.54,0.743,3.134,1.939 c0.416,0.836,0.481,1.783,0.184,2.668c-0.297,0.885-0.921,1.601-1.757,2.016l-3.127,1.551l-1.788,7.496 c-0.128,0.535-0.484,0.982-0.976,1.227l-1.881,0.933c-0.253,0.125-0.535,0.192-0.818,0.192H12.837z M11.772,13.04 c0.14,0,0.276,0.039,0.395,0.112c0.222,0.138,0.355,0.376,0.355,0.638v5.587c-0.001,0.097,0.033,0.183,0.096,0.248 c0.062,0.064,0.145,0.1,0.234,0.102c0.052,0,0.11-0.013,0.156-0.035l1.881-0.933c0.093-0.046,0.16-0.131,0.184-0.232l1.87-7.838 c0.052-0.217,0.196-0.399,0.396-0.498l3.441-1.707c0.477-0.237,0.833-0.646,1.002-1.151c0.17-0.505,0.133-1.046-0.104-1.523 c-0.339-0.682-1.025-1.106-1.79-1.106c-0.308,0-0.605,0.07-0.883,0.208l-3.227,1.631c-0.032,0.019-0.065,0.036-0.098,0.049 l-9.301,4.701c-0.105,0.053-0.222,0.08-0.338,0.08c-0.162,0-0.323-0.054-0.452-0.151L3.981,10.01l-1.697,0.747 C2.14,10.83,2.075,11.042,2.16,11.211c0.021,0.042,0.05,0.079,0.085,0.109l3.993,3.398c0.263,0.226,0.597,0.35,0.94,0.35 c0.22,0,0.442-0.052,0.64-0.15l3.619-1.8C11.541,13.067,11.657,13.04,11.772,13.04z M10.443,4.277 c-0.055,0-0.109,0.013-0.157,0.036L8.434,5.227c-0.08,0.04-0.142,0.112-0.171,0.201C8.233,5.518,8.24,5.61,8.282,5.695 c0.024,0.048,0.059,0.09,0.101,0.122l2.199,1.671l3.146-1.59l-3.134-1.587C10.55,4.289,10.497,4.277,10.443,4.277z"/></g></svg>