<svg xmlns="http://www.w3.org/2000/svg" xmlns:xlink="http://www.w3.org/1999/xlink" id="Layer_1" x="0" y="0" version="1.1" viewBox="0 0 24 24" xml:space="preserve" style="enable-background:new 0 0 24 24"><title>shopping-cart-1</title><g><path d="M6,19.875c-0.414,0-0.75-0.336-0.75-0.75s0.336-0.75,0.75-0.75h9.921c0.367,0,0.678-0.263,0.74-0.625l0.404-2.375H5.882 c-1.724,0-3.219-1.168-3.638-2.84l-1.45-5.8C0.697,6.346,0.757,5.943,0.963,5.599s0.534-0.587,0.922-0.684 c0.118-0.03,0.241-0.045,0.364-0.045h16.602l0.446-2.621c0.185-1.085,1.118-1.872,2.218-1.872H22.5c0.414,0,0.75,0.336,0.75,0.75 s-0.336,0.75-0.75,0.75h-0.984c-0.367,0-0.678,0.263-0.74,0.624l-2.637,15.5c-0.184,1.085-1.117,1.873-2.218,1.873H6z M3.699,12.171c0.251,1.003,1.148,1.704,2.182,1.704h11.438l1.277-7.504H2.25L3.699,12.171z"/><circle cx="7.875" cy="21.75" r="1.125"/><circle cx="15.375" cy="21.75" r="1.125"/></g></svg>