<svg xmlns="http://www.w3.org/2000/svg" xmlns:xlink="http://www.w3.org/1999/xlink" id="Layer_1" x="0" y="0" version="1.1" viewBox="0 0 24 24" xml:space="preserve" style="enable-background:new 0 0 24 24"><title>startup-launch</title><g><path d="M2.253,24c-0.601,0-1.166-0.234-1.591-0.659c-0.425-0.425-0.659-0.99-0.659-1.591c0-0.348,0.082-0.696,0.238-1.007 l1.836-3.671c0.309-0.617,0.781-1.136,1.357-1.499c-0.279-0.381-0.432-0.843-0.432-1.323v-7.5c0-1.241,1.009-2.25,2.25-2.25h1.5 c0.414,0,0.75,0.336,0.75,0.75S7.165,6,6.751,6h-1.5c-0.414,0-0.75,0.336-0.75,0.75v7.5c0,0.414,0.336,0.75,0.75,0.75h2.25 c0.414,0,0.75,0.336,0.75,0.75s-0.336,0.75-0.75,0.75H5.43c-0.858,0-1.629,0.477-2.012,1.243l-1.836,3.671 c-0.052,0.104-0.079,0.22-0.079,0.335c0,0.414,0.336,0.75,0.75,0.75h19.496c0.116,0,0.232-0.027,0.336-0.079 c0.179-0.09,0.313-0.244,0.376-0.434c0.063-0.19,0.049-0.393-0.041-0.573l-1.836-3.671c-0.384-0.767-1.155-1.243-2.012-1.243 h-2.071c-0.414,0-0.75-0.336-0.75-0.75S16.088,15,16.501,15h2.25c0.414,0,0.75-0.336,0.75-0.75v-7.5c0-0.414-0.336-0.75-0.75-0.75 h-1.5c-0.414,0-0.75-0.336-0.75-0.75s0.336-0.75,0.75-0.75h1.5c1.241,0,2.25,1.009,2.25,2.25v7.5c0,0.48-0.154,0.942-0.432,1.323 c0.576,0.363,1.049,0.882,1.357,1.499l1.836,3.671c0.269,0.538,0.312,1.148,0.122,1.718c-0.19,0.57-0.59,1.032-1.128,1.301 C22.446,23.918,22.097,24,21.749,24H2.253z"/><path d="M7.013,12.187c-0.38,0-0.734-0.153-0.988-0.419c-0.287-0.306-0.393-0.743-0.277-1.142c0.568-1.581,1.744-2.822,3.253-3.46 v-3.21c0-2.158,2.491-3.771,2.597-3.838C11.719,0.041,11.858,0,12.001,0s0.282,0.041,0.403,0.118 c0.106,0.068,2.597,1.68,2.597,3.839v3.21c1.507,0.639,2.679,1.87,3.237,3.414c0.131,0.442,0.031,0.877-0.259,1.186 c-0.256,0.269-0.613,0.422-0.98,0.422C16.997,12.187,7.013,12.187,7.013,12.187z M9.001,8.849C8.285,9.29,7.705,9.931,7.342,10.688 l1.659,0V8.849z M16.664,10.687c-0.355-0.748-0.938-1.392-1.662-1.838v1.838H16.664z M13.501,10.687V3.956 c0-0.94-0.969-1.849-1.5-2.276c-0.531,0.427-1.5,1.335-1.5,2.276v6.731H13.501z"/><path d="M10.501,17.25c-0.414,0-0.75-0.336-0.75-0.75v-2.25c0-0.414,0.336-0.75,0.75-0.75s0.75,0.336,0.75,0.75v2.25 C11.251,16.914,10.915,17.25,10.501,17.25z"/><path d="M13.501,19.5c-0.414,0-0.75-0.336-0.75-0.75v-4.5c0-0.414,0.336-0.75,0.75-0.75s0.75,0.336,0.75,0.75v4.5 C14.251,19.164,13.915,19.5,13.501,19.5z"/></g></svg>