<?xml version="1.0" encoding="utf-8"?>
<!-- Generator: Adobe Illustrator 22.1.0, SVG Export Plug-In . SVG Version: 6.00 Build 0)  -->
<svg version="1.1" id="Layer_1" xmlns="http://www.w3.org/2000/svg" xmlns:xlink="http://www.w3.org/1999/xlink" x="0px" y="0px"
	 viewBox="0 0 24 24" style="enable-background:new 0 0 24 24;" xml:space="preserve">
<title>ticket</title>
<g>
	<path d="M2.25,21C1.009,21,0,19.991,0,18.75v-2.309c0.001-0.736,0.527-1.357,1.252-1.479c1.266-0.211,2.257-1.202,2.468-2.467
		c0.131-0.789-0.053-1.584-0.52-2.237C2.734,9.605,2.042,9.173,1.253,9.042C0.526,8.921,0,8.299,0,7.563V5.25
		C0,4.009,1.009,3,2.25,3h19.5C22.991,3,24,4.009,24,5.25v2.311c0,0.736-0.527,1.358-1.253,1.479C21.3,9.285,20.249,10.53,20.25,12
		c0,1.469,1.051,2.713,2.5,2.959C23.473,15.079,24,15.7,24,16.437v2.313c0,1.241-1.009,2.25-2.25,2.25H2.25z M2.25,4.5
		C1.836,4.5,1.5,4.836,1.5,5.25v2.313C2.683,7.76,3.721,8.407,4.42,9.387s0.976,2.171,0.779,3.355c-0.316,1.897-1.803,3.384-3.7,3.7
		L1.5,18.75c0,0.414,0.336,0.75,0.75,0.75h19.5c0.414,0,0.75-0.336,0.75-0.75v-2.313c-2.173-0.368-3.75-2.234-3.75-4.437
		c-0.001-2.204,1.575-4.071,3.749-4.44L22.5,5.25c0-0.414-0.336-0.75-0.75-0.75H2.25z"/>
	<path d="M12,9.75c-0.414,0-0.75-0.336-0.75-0.75S11.586,8.25,12,8.25h5.25C17.664,8.25,18,8.586,18,9s-0.336,0.75-0.75,0.75H12z"/>
	<path d="M15.375,17.25c-1.448,0-2.625-1.177-2.625-2.625S13.927,12,15.375,12S18,13.177,18,14.625S16.823,17.25,15.375,17.25z
		 M15.375,13.5c-0.62,0-1.125,0.505-1.125,1.125s0.505,1.125,1.125,1.125s1.125-0.505,1.125-1.125S15.995,13.5,15.375,13.5z"/>
	<circle cx="7.875" cy="7.875" r="1.125"/>
	<circle cx="7.875" cy="12.375" r="1.125"/>
	<circle cx="7.875" cy="16.875" r="1.125"/>
</g>
</svg>
